<mxfile host="65bd71144e">
    <diagram id="Hf4iz0RIg-_XFYwcUOM6" name="栈内存">
        <mxGraphModel dx="1923" dy="30" grid="0" gridSize="10" guides="1" tooltips="1" connect="1" arrows="1" fold="1" page="0" pageScale="1" pageWidth="827" pageHeight="1169" math="0" shadow="0">
            <root>
                <mxCell id="0"/>
                <mxCell id="1" parent="0"/>
                <mxCell id="5" value="" style="verticalLabelPosition=bottom;verticalAlign=top;html=1;shape=mxgraph.basic.rect;fillColor2=none;strokeWidth=1;size=20;indent=5;" parent="1" vertex="1">
                    <mxGeometry x="-711" y="485" width="182" height="304" as="geometry"/>
                </mxCell>
                <mxCell id="6" value="" style="verticalLabelPosition=bottom;verticalAlign=top;html=1;shape=mxgraph.basic.rect;fillColor2=none;strokeWidth=1;size=20;indent=5;" parent="1" vertex="1">
                    <mxGeometry x="-693.5" y="722" width="147" height="60" as="geometry"/>
                </mxCell>
                <mxCell id="8" value="" style="verticalLabelPosition=bottom;verticalAlign=top;html=1;shape=mxgraph.basic.rect;fillColor2=none;strokeWidth=1;size=20;indent=5;" parent="1" vertex="1">
                    <mxGeometry x="-693.5" y="568" width="147" height="60" as="geometry"/>
                </mxCell>
                <mxCell id="9" value="" style="verticalLabelPosition=bottom;verticalAlign=top;html=1;shape=mxgraph.basic.rect;fillColor2=none;strokeWidth=1;size=20;indent=5;" parent="1" vertex="1">
                    <mxGeometry x="-693.5" y="645" width="147" height="60" as="geometry"/>
                </mxCell>
                <mxCell id="10" value="1" style="text;html=1;strokeColor=none;fillColor=none;align=center;verticalAlign=middle;whiteSpace=wrap;rounded=0;" parent="1" vertex="1">
                    <mxGeometry x="-653" y="737" width="60" height="30" as="geometry"/>
                </mxCell>
                <mxCell id="11" value="2" style="text;html=1;strokeColor=none;fillColor=none;align=center;verticalAlign=middle;whiteSpace=wrap;rounded=0;" parent="1" vertex="1">
                    <mxGeometry x="-658" y="660" width="60" height="30" as="geometry"/>
                </mxCell>
                <mxCell id="12" value="3" style="text;html=1;strokeColor=none;fillColor=none;align=center;verticalAlign=middle;whiteSpace=wrap;rounded=0;" parent="1" vertex="1">
                    <mxGeometry x="-658" y="583" width="60" height="30" as="geometry"/>
                </mxCell>
                <mxCell id="14" value="Stack Top" style="text;html=1;strokeColor=none;fillColor=none;align=center;verticalAlign=middle;whiteSpace=wrap;rounded=0;" parent="1" vertex="1">
                    <mxGeometry x="-733" y="460" width="100" height="30" as="geometry"/>
                </mxCell>
                <mxCell id="15" value="Stack Bottom" style="text;html=1;strokeColor=none;fillColor=none;align=center;verticalAlign=middle;whiteSpace=wrap;rounded=0;" parent="1" vertex="1">
                    <mxGeometry x="-733" y="786" width="115" height="30" as="geometry"/>
                </mxCell>
                <mxCell id="17" value="" style="verticalLabelPosition=bottom;verticalAlign=top;html=1;shape=mxgraph.basic.rect;fillColor2=none;strokeWidth=1;size=20;indent=5;" parent="1" vertex="1">
                    <mxGeometry x="-693.5" y="495" width="147" height="60" as="geometry"/>
                </mxCell>
                <mxCell id="18" value="4" style="text;html=1;strokeColor=none;fillColor=none;align=center;verticalAlign=middle;whiteSpace=wrap;rounded=0;" parent="1" vertex="1">
                    <mxGeometry x="-658" y="510" width="60" height="30" as="geometry"/>
                </mxCell>
                <mxCell id="19" value="" style="verticalLabelPosition=bottom;verticalAlign=top;html=1;shape=mxgraph.basic.rect;fillColor2=none;strokeWidth=1;size=20;indent=5;" parent="1" vertex="1">
                    <mxGeometry x="-458" y="486" width="182" height="304" as="geometry"/>
                </mxCell>
                <mxCell id="20" value="" style="verticalLabelPosition=bottom;verticalAlign=top;html=1;shape=mxgraph.basic.rect;fillColor2=none;strokeWidth=1;size=20;indent=5;" parent="1" vertex="1">
                    <mxGeometry x="-440.5" y="723" width="147" height="60" as="geometry"/>
                </mxCell>
                <mxCell id="21" value="" style="verticalLabelPosition=bottom;verticalAlign=top;html=1;shape=mxgraph.basic.rect;fillColor2=none;strokeWidth=1;size=20;indent=5;" parent="1" vertex="1">
                    <mxGeometry x="-440.5" y="569" width="147" height="60" as="geometry"/>
                </mxCell>
                <mxCell id="22" value="" style="verticalLabelPosition=bottom;verticalAlign=top;html=1;shape=mxgraph.basic.rect;fillColor2=none;strokeWidth=1;size=20;indent=5;" parent="1" vertex="1">
                    <mxGeometry x="-440.5" y="646" width="147" height="60" as="geometry"/>
                </mxCell>
                <mxCell id="23" value="1" style="text;html=1;strokeColor=none;fillColor=none;align=center;verticalAlign=middle;whiteSpace=wrap;rounded=0;" parent="1" vertex="1">
                    <mxGeometry x="-400" y="738" width="60" height="30" as="geometry"/>
                </mxCell>
                <mxCell id="24" value="2" style="text;html=1;strokeColor=none;fillColor=none;align=center;verticalAlign=middle;whiteSpace=wrap;rounded=0;" parent="1" vertex="1">
                    <mxGeometry x="-405" y="661" width="60" height="30" as="geometry"/>
                </mxCell>
                <mxCell id="25" value="3" style="text;html=1;strokeColor=none;fillColor=none;align=center;verticalAlign=middle;whiteSpace=wrap;rounded=0;" parent="1" vertex="1">
                    <mxGeometry x="-405" y="584" width="60" height="30" as="geometry"/>
                </mxCell>
                <mxCell id="26" value="Stack Top" style="text;html=1;strokeColor=none;fillColor=none;align=center;verticalAlign=middle;whiteSpace=wrap;rounded=0;" parent="1" vertex="1">
                    <mxGeometry x="-479" y="460" width="100" height="30" as="geometry"/>
                </mxCell>
                <mxCell id="27" value="" style="verticalLabelPosition=bottom;verticalAlign=top;html=1;shape=mxgraph.basic.rect;fillColor2=none;strokeWidth=1;size=20;indent=5;" parent="1" vertex="1">
                    <mxGeometry x="-198" y="485" width="147" height="60" as="geometry"/>
                </mxCell>
                <mxCell id="28" value="4" style="text;html=1;strokeColor=none;fillColor=none;align=center;verticalAlign=middle;whiteSpace=wrap;rounded=0;" parent="1" vertex="1">
                    <mxGeometry x="-148" y="502" width="60" height="30" as="geometry"/>
                </mxCell>
                <mxCell id="33" value="" style="edgeStyle=segmentEdgeStyle;endArrow=classic;html=1;" parent="1" edge="1">
                    <mxGeometry width="50" height="50" relative="1" as="geometry">
                        <mxPoint x="-122" y="483" as="sourcePoint"/>
                        <mxPoint x="-316" y="483" as="targetPoint"/>
                        <Array as="points">
                            <mxPoint x="-122" y="442"/>
                            <mxPoint x="-316" y="442"/>
                        </Array>
                    </mxGeometry>
                </mxCell>
                <mxCell id="35" value="入栈" style="edgeLabel;html=1;align=center;verticalAlign=middle;resizable=0;points=[];" parent="33" vertex="1" connectable="0">
                    <mxGeometry x="0.1039" y="1" relative="1" as="geometry">
                        <mxPoint as="offset"/>
                    </mxGeometry>
                </mxCell>
                <mxCell id="34" value="Stack Bottom" style="text;html=1;strokeColor=none;fillColor=none;align=center;verticalAlign=middle;whiteSpace=wrap;rounded=0;" parent="1" vertex="1">
                    <mxGeometry x="-470" y="787" width="100" height="30" as="geometry"/>
                </mxCell>
                <mxCell id="36" value="" style="shape=singleArrow;direction=west;whiteSpace=wrap;html=1;" parent="1" vertex="1">
                    <mxGeometry x="-525" y="625" width="62" height="20" as="geometry"/>
                </mxCell>
                <mxCell id="37" value="" style="verticalLabelPosition=bottom;verticalAlign=top;html=1;shape=mxgraph.basic.rect;fillColor2=none;strokeWidth=1;size=20;indent=5;" parent="1" vertex="1">
                    <mxGeometry x="-960" y="485" width="182" height="308" as="geometry"/>
                </mxCell>
                <mxCell id="38" value="" style="verticalLabelPosition=bottom;verticalAlign=top;html=1;shape=mxgraph.basic.rect;fillColor2=none;strokeWidth=1;size=20;indent=5;" parent="1" vertex="1">
                    <mxGeometry x="-942.5" y="726" width="147" height="60" as="geometry"/>
                </mxCell>
                <mxCell id="39" value="" style="verticalLabelPosition=bottom;verticalAlign=top;html=1;shape=mxgraph.basic.rect;fillColor2=none;strokeWidth=1;size=20;indent=5;" parent="1" vertex="1">
                    <mxGeometry x="-942.5" y="572" width="147" height="60" as="geometry"/>
                </mxCell>
                <mxCell id="40" value="" style="verticalLabelPosition=bottom;verticalAlign=top;html=1;shape=mxgraph.basic.rect;fillColor2=none;strokeWidth=1;size=20;indent=5;" parent="1" vertex="1">
                    <mxGeometry x="-942.5" y="649" width="147" height="60" as="geometry"/>
                </mxCell>
                <mxCell id="41" value="1" style="text;html=1;strokeColor=none;fillColor=none;align=center;verticalAlign=middle;whiteSpace=wrap;rounded=0;" parent="1" vertex="1">
                    <mxGeometry x="-902" y="741" width="60" height="30" as="geometry"/>
                </mxCell>
                <mxCell id="42" value="2" style="text;html=1;strokeColor=none;fillColor=none;align=center;verticalAlign=middle;whiteSpace=wrap;rounded=0;" parent="1" vertex="1">
                    <mxGeometry x="-907" y="664" width="60" height="30" as="geometry"/>
                </mxCell>
                <mxCell id="43" value="3" style="text;html=1;strokeColor=none;fillColor=none;align=center;verticalAlign=middle;whiteSpace=wrap;rounded=0;" parent="1" vertex="1">
                    <mxGeometry x="-907" y="587" width="60" height="30" as="geometry"/>
                </mxCell>
                <mxCell id="45" value="" style="shape=singleArrow;direction=west;whiteSpace=wrap;html=1;" parent="1" vertex="1">
                    <mxGeometry x="-775" y="626" width="62" height="20" as="geometry"/>
                </mxCell>
                <mxCell id="46" value="" style="verticalLabelPosition=bottom;verticalAlign=top;html=1;shape=mxgraph.basic.rect;fillColor2=none;strokeWidth=1;size=20;indent=5;" parent="1" vertex="1">
                    <mxGeometry x="-1167" y="485" width="147" height="60" as="geometry"/>
                </mxCell>
                <mxCell id="47" value="4" style="text;html=1;strokeColor=none;fillColor=none;align=center;verticalAlign=middle;whiteSpace=wrap;rounded=0;" parent="1" vertex="1">
                    <mxGeometry x="-1117" y="502" width="60" height="30" as="geometry"/>
                </mxCell>
                <mxCell id="48" value="" style="edgeStyle=segmentEdgeStyle;endArrow=classic;html=1;" parent="1" edge="1">
                    <mxGeometry width="50" height="50" relative="1" as="geometry">
                        <mxPoint x="-896" y="484" as="sourcePoint"/>
                        <mxPoint x="-1090" y="484" as="targetPoint"/>
                        <Array as="points">
                            <mxPoint x="-896" y="443"/>
                            <mxPoint x="-1090" y="443"/>
                        </Array>
                    </mxGeometry>
                </mxCell>
                <mxCell id="49" value="出栈" style="edgeLabel;html=1;align=center;verticalAlign=middle;resizable=0;points=[];" parent="48" vertex="1" connectable="0">
                    <mxGeometry x="0.1039" y="1" relative="1" as="geometry">
                        <mxPoint as="offset"/>
                    </mxGeometry>
                </mxCell>
                <mxCell id="50" value="Stack Top" style="text;html=1;strokeColor=none;fillColor=none;align=center;verticalAlign=middle;whiteSpace=wrap;rounded=0;" parent="1" vertex="1">
                    <mxGeometry x="-859" y="463" width="100" height="30" as="geometry"/>
                </mxCell>
                <mxCell id="51" value="Stack Bottom" style="text;html=1;strokeColor=none;fillColor=none;align=center;verticalAlign=middle;whiteSpace=wrap;rounded=0;" parent="1" vertex="1">
                    <mxGeometry x="-874" y="789" width="115" height="30" as="geometry"/>
                </mxCell>
            </root>
        </mxGraphModel>
    </diagram>
    <diagram id="ziB9o0nub1usd4Ol5U77" name="V8引擎堆栈">
        <mxGraphModel dx="1123" dy="430" grid="0" gridSize="10" guides="1" tooltips="1" connect="1" arrows="1" fold="1" page="0" pageScale="1" pageWidth="827" pageHeight="1169" math="0" shadow="0">
            <root>
                <mxCell id="NNBqIWamZvWmLMzo8be2-0"/>
                <mxCell id="NNBqIWamZvWmLMzo8be2-1" parent="NNBqIWamZvWmLMzo8be2-0"/>
                <mxCell id="NNBqIWamZvWmLMzo8be2-2" value="" style="rounded=0;whiteSpace=wrap;html=1;" parent="NNBqIWamZvWmLMzo8be2-1" vertex="1">
                    <mxGeometry x="-351" y="12" width="784" height="427" as="geometry"/>
                </mxCell>
                <mxCell id="NNBqIWamZvWmLMzo8be2-3" value="" style="rounded=0;whiteSpace=wrap;html=1;" parent="NNBqIWamZvWmLMzo8be2-1" vertex="1">
                    <mxGeometry x="-341" y="35" width="172" height="395" as="geometry"/>
                </mxCell>
                <mxCell id="NNBqIWamZvWmLMzo8be2-4" value="内存" style="text;html=1;strokeColor=none;fillColor=none;align=center;verticalAlign=middle;whiteSpace=wrap;rounded=0;" parent="NNBqIWamZvWmLMzo8be2-1" vertex="1">
                    <mxGeometry x="37" y="9" width="60" height="30" as="geometry"/>
                </mxCell>
                <mxCell id="NNBqIWamZvWmLMzo8be2-5" value="栈" style="text;html=1;strokeColor=none;fillColor=none;align=center;verticalAlign=middle;whiteSpace=wrap;rounded=0;" parent="NNBqIWamZvWmLMzo8be2-1" vertex="1">
                    <mxGeometry x="-339" y="35" width="60" height="30" as="geometry"/>
                </mxCell>
                <mxCell id="NNBqIWamZvWmLMzo8be2-6" value="" style="rounded=0;whiteSpace=wrap;html=1;" parent="NNBqIWamZvWmLMzo8be2-1" vertex="1">
                    <mxGeometry x="-153" y="31" width="581" height="398" as="geometry"/>
                </mxCell>
                <mxCell id="NNBqIWamZvWmLMzo8be2-7" value="堆" style="text;html=1;strokeColor=none;fillColor=none;align=center;verticalAlign=middle;whiteSpace=wrap;rounded=0;" parent="NNBqIWamZvWmLMzo8be2-1" vertex="1">
                    <mxGeometry x="-167" y="35" width="60" height="30" as="geometry"/>
                </mxCell>
                <mxCell id="NNBqIWamZvWmLMzo8be2-8" value="" style="rounded=0;whiteSpace=wrap;html=1;" parent="NNBqIWamZvWmLMzo8be2-1" vertex="1">
                    <mxGeometry x="-143" y="63" width="261" height="84" as="geometry"/>
                </mxCell>
                <mxCell id="NNBqIWamZvWmLMzo8be2-9" value="代码大对象空间&lt;br&gt;code large object space" style="rounded=0;whiteSpace=wrap;html=1;" parent="NNBqIWamZvWmLMzo8be2-1" vertex="1">
                    <mxGeometry x="147" y="158" width="261" height="84" as="geometry"/>
                </mxCell>
                <mxCell id="NNBqIWamZvWmLMzo8be2-10" value="大对象空间&lt;br&gt;large object space" style="rounded=0;whiteSpace=wrap;html=1;" parent="NNBqIWamZvWmLMzo8be2-1" vertex="1">
                    <mxGeometry x="-141" y="158" width="261" height="84" as="geometry"/>
                </mxCell>
                <mxCell id="NNBqIWamZvWmLMzo8be2-11" value="" style="rounded=0;whiteSpace=wrap;html=1;" parent="NNBqIWamZvWmLMzo8be2-1" vertex="1">
                    <mxGeometry x="145" y="64" width="261" height="84" as="geometry"/>
                </mxCell>
                <mxCell id="NNBqIWamZvWmLMzo8be2-13" value="新生代 new space" style="text;html=1;strokeColor=none;fillColor=none;align=center;verticalAlign=middle;whiteSpace=wrap;rounded=0;" parent="NNBqIWamZvWmLMzo8be2-1" vertex="1">
                    <mxGeometry x="-67" y="66" width="117" height="30" as="geometry"/>
                </mxCell>
                <mxCell id="NNBqIWamZvWmLMzo8be2-14" value="老生代 old space" style="text;html=1;strokeColor=none;fillColor=none;align=center;verticalAlign=middle;whiteSpace=wrap;rounded=0;" parent="NNBqIWamZvWmLMzo8be2-1" vertex="1">
                    <mxGeometry x="207" y="59" width="117" height="30" as="geometry"/>
                </mxCell>
                <mxCell id="NNBqIWamZvWmLMzo8be2-15" value="from空间" style="rounded=0;whiteSpace=wrap;html=1;" parent="NNBqIWamZvWmLMzo8be2-1" vertex="1">
                    <mxGeometry x="-124" y="99" width="95" height="36" as="geometry"/>
                </mxCell>
                <mxCell id="NNBqIWamZvWmLMzo8be2-16" value="to空间" style="rounded=0;whiteSpace=wrap;html=1;" parent="NNBqIWamZvWmLMzo8be2-1" vertex="1">
                    <mxGeometry x="7" y="99" width="95" height="36" as="geometry"/>
                </mxCell>
                <mxCell id="NNBqIWamZvWmLMzo8be2-17" value="指针空间&lt;br&gt;old pointer space" style="rounded=0;whiteSpace=wrap;html=1;" parent="NNBqIWamZvWmLMzo8be2-1" vertex="1">
                    <mxGeometry x="157" y="95" width="106" height="36" as="geometry"/>
                </mxCell>
                <mxCell id="NNBqIWamZvWmLMzo8be2-18" value="数据空间&lt;br&gt;old data space" style="rounded=0;whiteSpace=wrap;html=1;" parent="NNBqIWamZvWmLMzo8be2-1" vertex="1">
                    <mxGeometry x="291" y="95" width="110" height="36" as="geometry"/>
                </mxCell>
                <mxCell id="NNBqIWamZvWmLMzo8be2-19" value="新的大对象空间&lt;br&gt;new large object space" style="rounded=0;whiteSpace=wrap;html=1;" parent="NNBqIWamZvWmLMzo8be2-1" vertex="1">
                    <mxGeometry x="-141" y="253" width="261" height="69" as="geometry"/>
                </mxCell>
                <mxCell id="NNBqIWamZvWmLMzo8be2-20" value="map空间&lt;br&gt;map space" style="rounded=0;whiteSpace=wrap;html=1;" parent="NNBqIWamZvWmLMzo8be2-1" vertex="1">
                    <mxGeometry x="147" y="253" width="261" height="69" as="geometry"/>
                </mxCell>
                <mxCell id="NNBqIWamZvWmLMzo8be2-21" value="运行时代码空间&lt;br&gt;code space" style="rounded=0;whiteSpace=wrap;html=1;" parent="NNBqIWamZvWmLMzo8be2-1" vertex="1">
                    <mxGeometry x="-8" y="343" width="299" height="69" as="geometry"/>
                </mxCell>
            </root>
        </mxGraphModel>
    </diagram>
</mxfile>